<svg id="Capa_1" enable-background="new 0 0 512.011 512.011" height="512" viewBox="0 0 512.011 512.011" width="512" xmlns="http://www.w3.org/2000/svg"><g><g><g><path d="m104.1 7.5c-24.853 0-45 20.147-45 45v354.166l393.812-44.306v-334.86c0-11.046-8.954-20-20-20z" fill="#ff8086"/></g><g><path d="m82.13 52.5c0-24.853 20.147-45 45-45h-23.03c-24.853 0-45 20.147-45 45v354.166l23.03-2.473z" fill="#f46c7a"/></g><g><path d="m410.591 438.079v-64.145h37.32c2.761 0 5-2.239 5-5v-25c0-2.761-2.239-5-5-5h-343.811c-24.853 0-45 20.147-45 45v44.144c0 24.853 20.147 45 45 45h343.812c2.761 0 5-2.239 5-5v-25c0-2.761-2.239-5-5-5h-37.321z" fill="#db4655"/></g><g><path d="m82.14 428.08v-83.42c-13.745 7.702-23.04 22.399-23.04 39.275v44.144c0 24.853 20.147 45 45 45h23.04c-24.853.001-45-20.147-45-44.999z" fill="#ce344a"/></g><g><path d="m104.1 438.079c-5.514 0-10-4.486-10-10v-44.145c0-5.514 4.486-10 10-10h328.106v64.145z" fill="#eef5f6"/></g><g><path d="m113.78 428.08v-44.145c0-5.514 4.486-10 10-10h-19.68c-5.514 0-10 4.486-10 10v44.145c0 5.514 4.486 10 10 10h19.68c-5.515 0-10-4.486-10-10z" fill="#deecf1"/></g><g><path d="m246.655 406.007v93.483c0 4.258-4.982 6.567-8.231 3.815l-35.689-30.226-35.689 30.226c-3.249 2.752-8.231.442-8.231-3.815v-93.483z" fill="#c3ddff"/></g><g><path d="m178.975 406.007h-20.16v93.483c0 4.258 4.982 6.567 8.232 3.816l11.929-10.103v-87.196z" fill="#a4ccff"/></g><g><path d="m363.59 180.92h-215.17c-5.523 0-10-4.477-10-10v-88.4c0-5.523 4.477-10 10-10h215.17c5.523 0 10 4.477 10 10v88.4c0 5.523-4.477 10-10 10z" fill="#f6b2bb"/></g><g><path d="m161.916 170.92v-88.4c0-5.523 4.477-10 10-10h-23.496c-5.523 0-10 4.477-10 10v88.4c0 5.523 4.477 10 10 10h23.496c-5.522 0-10-4.477-10-10z" fill="#f8a6af"/></g></g><g><path d="m452.911 98.06c4.142 0 7.5-3.358 7.5-7.5v-63.06c0-15.164-12.336-27.5-27.5-27.5h-328.811c-28.949 0-52.5 23.551-52.5 52.5v331.435 44.145c0 28.949 23.551 52.5 52.5 52.5h47.215v18.911c0 4.924 2.775 9.27 7.244 11.341 1.707.792 3.508 1.18 5.291 1.18 2.884 0 5.722-1.015 8.044-2.982l30.841-26.121 30.841 26.121c3.757 3.183 8.869 3.874 13.335 1.802 4.468-2.071 7.244-6.417 7.244-11.341v-53.911h191.256v20h-158.806c-4.142 0-7.5 3.358-7.5 7.5s3.358 7.5 7.5 7.5h161.306c6.893 0 12.5-5.607 12.5-12.5v-25c0-6.893-5.607-12.5-12.5-12.5h-8.205v-49.145h8.205c6.893 0 12.5-5.607 12.5-12.5v-236.255c0-4.142-3.358-7.5-7.5-7.5s-7.5 3.358-7.5 7.5v198.755h-341.311c-14.679 0-27.963 6.063-37.5 15.808v-294.743c0-20.678 16.822-37.5 37.5-37.5h328.812c6.893 0 12.5 5.607 12.5 12.5v63.06c-.001 4.142 3.357 7.5 7.499 7.5zm-213.756 396.037-31.573-26.74c-2.797-2.369-6.897-2.369-9.694 0l-31.573 26.74v-80.589h72.84zm15-80.59h93.65c4.142 0 7.5-3.358 7.5-7.5s-3.358-7.5-7.5-7.5h-222.788c-4.142 0-7.5 3.358-7.5 7.5s3.358 7.5 7.5 7.5h26.298v17.072h-47.215c-1.378 0-2.5-1.122-2.5-2.5v-44.145c0-1.378 1.122-2.5 2.5-2.5h320.606v17.072h-40.181c-4.142 0-7.5 3.358-7.5 7.5s3.358 7.5 7.5 7.5h40.181v17.072h-170.551zm-150.055-67.072h341.312v20h-341.312c-9.649 0-17.5 7.851-17.5 17.5v44.145c0 9.649 7.851 17.5 17.5 17.5h47.215v20h-47.215c-20.678 0-37.5-16.822-37.5-37.5v-44.145c0-20.678 16.822-37.5 37.5-37.5z"/><path d="m381.09 82.52c0-9.649-7.851-17.5-17.5-17.5h-215.17c-9.649 0-17.5 7.851-17.5 17.5v88.4c0 9.649 7.851 17.5 17.5 17.5h215.17c9.649 0 17.5-7.851 17.5-17.5zm-15 88.4c0 1.378-1.122 2.5-2.5 2.5h-215.17c-1.378 0-2.5-1.122-2.5-2.5v-88.4c0-1.378 1.122-2.5 2.5-2.5h215.17c1.378 0 2.5 1.122 2.5 2.5z"/><path d="m317.206 100.46h-122.4c-4.142 0-7.5 3.358-7.5 7.5s3.358 7.5 7.5 7.5h122.4c4.142 0 7.5-3.358 7.5-7.5s-3.358-7.5-7.5-7.5z"/><path d="m317.206 137.98h-122.4c-4.142 0-7.5 3.358-7.5 7.5s3.358 7.5 7.5 7.5h122.4c4.142 0 7.5-3.358 7.5-7.5s-3.358-7.5-7.5-7.5z"/><path d="m140.337 209.42c-4.142 0-7.5 3.358-7.5 7.5s3.358 7.5 7.5 7.5h231.337c4.142 0 7.5-3.358 7.5-7.5s-3.358-7.5-7.5-7.5z"/></g></g></svg>