<svg width="24" height="24" xmlns="http://www.w3.org/2000/svg">

 <g>
  <title>background</title>
  <rect fill="none" id="canvas_background" height="402" width="582" y="-1" x="-1"/>
 </g>
 <g>
  <title>Layer 1</title>
  <path id="svg_2" fill="#27ae60" d="m22,13c0,5.523 -4.477,10 -10,10c-5.5228,0 -10,-4.477 -10,-10c0,-5.5228 4.4772,-10 10,-10c5.523,0 10,4.4772 10,10z"/>
  <path id="svg_3" fill="#2ecc71" d="m22,12c0,5.523 -4.477,10 -10,10c-5.5228,0 -10,-4.477 -10,-10c0,-5.5228 4.4772,-10 10,-10c5.523,0 10,4.4772 10,10z"/>
  <path id="svg_4" fill="#27ae60" d="m16,8.999976l-6,6l-2.5,-2.5l-2.125,2.1l2.5,2.5l2,2l0.125,0.1l8.125,-8.1l-2.125,-2.1z"/>
  <path id="svg_5" fill="#ecf0f1" d="m16,7.999976l-6,6l-2.5,-2.5l-2.125,2.1l2.5,2.5l2,2l0.125,0.1l8.125,-8.1l-2.125,-2.1z"/>
 </g>
</svg>